<mxfile host="app.diagrams.net" agent="Mozilla/5.0 (Macintosh; Intel Mac OS X 10_15_7) AppleWebKit/537.36 (KHTML, like Gecko) Chrome/129.0.0.0 Safari/537.36" version="24.8.8">
  <diagram name="Page-1" id="g0W4r3CE2hw3DP2qc3gm">
    <mxGraphModel dx="2524" dy="1028" grid="1" gridSize="10" guides="1" tooltips="1" connect="1" arrows="1" fold="1" page="1" pageScale="1" pageWidth="850" pageHeight="1100" math="0" shadow="0">
      <root>
        <mxCell id="0" />
        <mxCell id="1" parent="0" />
        <mxCell id="o4o1CFRUc_BOwwjsDe8--2" style="edgeStyle=orthogonalEdgeStyle;rounded=0;orthogonalLoop=1;jettySize=auto;html=1;" edge="1" parent="1" source="o4o1CFRUc_BOwwjsDe8--1">
          <mxGeometry relative="1" as="geometry">
            <mxPoint x="362.5" y="210" as="targetPoint" />
          </mxGeometry>
        </mxCell>
        <mxCell id="o4o1CFRUc_BOwwjsDe8--1" value="Ad" style="rounded=1;whiteSpace=wrap;html=1;" vertex="1" parent="1">
          <mxGeometry x="240" y="40" width="245" height="70" as="geometry" />
        </mxCell>
        <mxCell id="o4o1CFRUc_BOwwjsDe8--3" value="" style="endArrow=none;html=1;rounded=0;" edge="1" parent="1">
          <mxGeometry width="50" height="50" relative="1" as="geometry">
            <mxPoint x="250" y="170" as="sourcePoint" />
            <mxPoint x="300" y="120" as="targetPoint" />
          </mxGeometry>
        </mxCell>
        <mxCell id="o4o1CFRUc_BOwwjsDe8--4" value="" style="endArrow=none;html=1;rounded=0;" edge="1" parent="1">
          <mxGeometry width="50" height="50" relative="1" as="geometry">
            <mxPoint x="420" y="120" as="sourcePoint" />
            <mxPoint x="480" y="180" as="targetPoint" />
          </mxGeometry>
        </mxCell>
        <mxCell id="o4o1CFRUc_BOwwjsDe8--14" style="edgeStyle=orthogonalEdgeStyle;rounded=0;orthogonalLoop=1;jettySize=auto;html=1;" edge="1" parent="1" source="o4o1CFRUc_BOwwjsDe8--5">
          <mxGeometry relative="1" as="geometry">
            <mxPoint x="210" y="310" as="targetPoint" />
          </mxGeometry>
        </mxCell>
        <mxCell id="o4o1CFRUc_BOwwjsDe8--5" value="Frames" style="rounded=1;whiteSpace=wrap;html=1;" vertex="1" parent="1">
          <mxGeometry x="150" y="190" width="120" height="60" as="geometry" />
        </mxCell>
        <mxCell id="o4o1CFRUc_BOwwjsDe8--7" style="edgeStyle=orthogonalEdgeStyle;rounded=0;orthogonalLoop=1;jettySize=auto;html=1;" edge="1" parent="1" source="o4o1CFRUc_BOwwjsDe8--6">
          <mxGeometry relative="1" as="geometry">
            <mxPoint x="380" y="470" as="targetPoint" />
          </mxGeometry>
        </mxCell>
        <mxCell id="o4o1CFRUc_BOwwjsDe8--6" value="Transcripts" style="rounded=1;whiteSpace=wrap;html=1;" vertex="1" parent="1">
          <mxGeometry x="320" y="330" width="120" height="60" as="geometry" />
        </mxCell>
        <mxCell id="o4o1CFRUc_BOwwjsDe8--21" style="edgeStyle=orthogonalEdgeStyle;rounded=0;orthogonalLoop=1;jettySize=auto;html=1;" edge="1" parent="1" source="o4o1CFRUc_BOwwjsDe8--8">
          <mxGeometry relative="1" as="geometry">
            <mxPoint x="380" y="630" as="targetPoint" />
          </mxGeometry>
        </mxCell>
        <mxCell id="o4o1CFRUc_BOwwjsDe8--8" value="LLM" style="rounded=1;whiteSpace=wrap;html=1;" vertex="1" parent="1">
          <mxGeometry x="320" y="470" width="120" height="60" as="geometry" />
        </mxCell>
        <mxCell id="o4o1CFRUc_BOwwjsDe8--13" style="edgeStyle=orthogonalEdgeStyle;rounded=0;orthogonalLoop=1;jettySize=auto;html=1;" edge="1" parent="1" source="o4o1CFRUc_BOwwjsDe8--12">
          <mxGeometry relative="1" as="geometry">
            <mxPoint x="370" y="320" as="targetPoint" />
          </mxGeometry>
        </mxCell>
        <mxCell id="o4o1CFRUc_BOwwjsDe8--12" value="Transcriptor API" style="rounded=1;whiteSpace=wrap;html=1;" vertex="1" parent="1">
          <mxGeometry x="310" y="210" width="120" height="50" as="geometry" />
        </mxCell>
        <mxCell id="o4o1CFRUc_BOwwjsDe8--17" style="edgeStyle=orthogonalEdgeStyle;rounded=0;orthogonalLoop=1;jettySize=auto;html=1;" edge="1" parent="1" source="o4o1CFRUc_BOwwjsDe8--15">
          <mxGeometry relative="1" as="geometry">
            <mxPoint x="220" y="490" as="targetPoint" />
          </mxGeometry>
        </mxCell>
        <mxCell id="o4o1CFRUc_BOwwjsDe8--15" value="Create a summary&amp;nbsp;" style="rounded=1;whiteSpace=wrap;html=1;" vertex="1" parent="1">
          <mxGeometry x="160" y="320" width="120" height="60" as="geometry" />
        </mxCell>
        <mxCell id="o4o1CFRUc_BOwwjsDe8--16" value="BLIP-2" style="text;html=1;align=center;verticalAlign=middle;resizable=0;points=[];autosize=1;strokeColor=none;fillColor=none;" vertex="1" parent="1">
          <mxGeometry x="110" y="268" width="60" height="30" as="geometry" />
        </mxCell>
        <mxCell id="o4o1CFRUc_BOwwjsDe8--18" value="" style="endArrow=classic;html=1;rounded=0;" edge="1" parent="1">
          <mxGeometry width="50" height="50" relative="1" as="geometry">
            <mxPoint x="220" y="490" as="sourcePoint" />
            <mxPoint x="310" y="499.5" as="targetPoint" />
          </mxGeometry>
        </mxCell>
        <mxCell id="o4o1CFRUc_BOwwjsDe8--19" value="text" style="text;html=1;align=center;verticalAlign=middle;resizable=0;points=[];autosize=1;strokeColor=none;fillColor=none;fontFamily=Helvetica;fontSize=12;fontColor=default;" vertex="1" parent="1">
          <mxGeometry x="230" y="418" width="40" height="30" as="geometry" />
        </mxCell>
        <mxCell id="o4o1CFRUc_BOwwjsDe8--20" value="text" style="text;html=1;align=center;verticalAlign=middle;resizable=0;points=[];autosize=1;strokeColor=none;fillColor=none;fontFamily=Helvetica;fontSize=12;fontColor=default;" vertex="1" parent="1">
          <mxGeometry x="405" y="418" width="40" height="30" as="geometry" />
        </mxCell>
        <mxCell id="o4o1CFRUc_BOwwjsDe8--22" value="Tagging , summarization etc" style="rhombus;whiteSpace=wrap;html=1;" vertex="1" parent="1">
          <mxGeometry x="320" y="640" width="130" height="140" as="geometry" />
        </mxCell>
        <mxCell id="o4o1CFRUc_BOwwjsDe8--23" value="output" style="text;html=1;align=center;verticalAlign=middle;resizable=0;points=[];autosize=1;strokeColor=none;fillColor=none;" vertex="1" parent="1">
          <mxGeometry x="400" y="568" width="60" height="30" as="geometry" />
        </mxCell>
        <mxCell id="o4o1CFRUc_BOwwjsDe8--26" value="Q1. How to extract frames from the video ?" style="text;html=1;align=center;verticalAlign=middle;whiteSpace=wrap;rounded=0;" vertex="1" parent="1">
          <mxGeometry x="-110" y="170" width="190" height="100" as="geometry" />
        </mxCell>
        <mxCell id="o4o1CFRUc_BOwwjsDe8--27" value="Q2. How many&amp;nbsp; frames can be inputed to the Model ?" style="text;html=1;align=center;verticalAlign=middle;whiteSpace=wrap;rounded=0;" vertex="1" parent="1">
          <mxGeometry x="-110" y="290" width="190" height="80" as="geometry" />
        </mxCell>
        <mxCell id="o4o1CFRUc_BOwwjsDe8--29" value="&lt;h1 style=&quot;margin-top: 0px;&quot;&gt;Preferably&lt;/h1&gt;&lt;p&gt;&lt;font style=&quot;font-size: 18px;&quot;&gt;Find a Free of Cost Transcriptor&amp;nbsp;&lt;/font&gt;&lt;/p&gt;" style="text;html=1;whiteSpace=wrap;overflow=hidden;rounded=0;" vertex="1" parent="1">
          <mxGeometry x="560" y="170" width="180" height="120" as="geometry" />
        </mxCell>
        <mxCell id="o4o1CFRUc_BOwwjsDe8--31" value="&lt;font style=&quot;font-size: 14px;&quot;&gt;May need to apply RAG here&lt;/font&gt;&lt;div&gt;&lt;font style=&quot;font-size: 14px;&quot;&gt;&lt;br&gt;&lt;/font&gt;&lt;/div&gt;&lt;div&gt;&lt;font style=&quot;font-size: 14px;&quot;&gt;Depends on the size of transcript&lt;/font&gt;&lt;/div&gt;" style="text;html=1;align=center;verticalAlign=middle;resizable=0;points=[];autosize=1;strokeColor=none;fillColor=none;" vertex="1" parent="1">
          <mxGeometry x="460" y="403" width="230" height="60" as="geometry" />
        </mxCell>
      </root>
    </mxGraphModel>
  </diagram>
</mxfile>
